<?xml version="1.0" encoding="UTF-8" standalone="no"?>
<!DOCTYPE svg PUBLIC "-//W3C//DTD SVG 1.1//EN" "http://www.w3.org/Graphics/SVG/1.1/DTD/svg11.dtd">
<svg width="100%" height="100%" viewBox="0 0 967 180" version="1.1" xmlns="http://www.w3.org/2000/svg" xmlns:xlink="http://www.w3.org/1999/xlink" xml:space="preserve" xmlns:serif="http://www.serif.com/" style="fill-rule:evenodd;clip-rule:evenodd;stroke-linejoin:round;stroke-miterlimit:2;">
    <path d="M89.667,14.944C48.399,14.944 14.944,48.399 14.944,89.667C14.944,130.934 48.399,164.389 89.667,164.389C130.934,164.389 164.389,130.934 164.389,89.667C164.389,48.399 130.934,14.944 89.667,14.944ZM83.894,64.03L68.837,76.02C62.52,81.05 59.361,83.566 59.978,86.374L60.01,86.513C60.713,89.304 64.717,90.377 72.724,92.523C77.174,93.715 79.399,94.311 80.443,95.998L80.496,96.087C81.503,97.793 80.93,99.931 79.785,104.207L79.485,105.324C76.309,117.178 74.721,123.104 77.779,125.018C80.837,126.932 85.704,123.057 95.437,115.307L110.494,103.316C116.811,98.286 119.97,95.771 119.353,92.962L119.321,92.823C118.618,90.032 114.614,88.959 106.607,86.814C102.157,85.621 99.932,85.025 98.888,83.338L98.835,83.25C97.828,81.543 98.401,79.405 99.546,75.13L99.846,74.012C103.022,62.159 104.61,56.232 101.551,54.318C98.493,52.404 93.626,56.279 83.894,64.03Z" style="fill:#f05d5e;"/>
    <path d="M296.869,54.667C293.869,68.867 289.969,83.117 285.169,97.417C280.369,111.717 275.019,124.967 269.119,137.167L244.819,137.167C238.919,124.967 233.569,111.717 228.769,97.417C223.969,83.117 220.069,68.867 217.069,54.667L237.469,54.667C239.969,68.467 242.819,80.892 246.019,91.942C249.219,102.992 253.519,115.167 258.919,128.467L255.019,128.467C260.419,115.067 264.744,102.842 267.994,91.792C271.244,80.742 274.069,68.367 276.469,54.667L296.869,54.667Z" style="fill:#4a90e2;fill-rule:nonzero;"/>
    <path d="M348.019,65.467L354.469,71.917L325.069,71.917L325.069,54.667L367.519,54.667L367.519,129.517L348.019,129.517L348.019,65.467ZM319.819,119.917L388.819,119.917L388.819,137.167L319.819,137.167L319.819,119.917ZM346.819,14.917L368.719,14.917L368.719,37.867L346.819,37.867L346.819,14.917Z" style="fill:#4a90e2;fill-rule:nonzero;"/>
    <path d="M460.969,138.667C450.269,138.667 442.194,135.842 436.744,130.192C431.294,124.542 428.569,117.117 428.569,107.917L428.569,65.167L437.869,71.017L411.169,71.017L411.169,58.117L437.719,52.867L426.769,63.817L431.869,36.217L448.069,36.217L448.069,61.567L438.769,54.667L482.869,54.667L482.869,71.017L438.769,71.017L448.069,65.167L448.069,105.217C448.069,110.717 449.319,114.667 451.819,117.067C454.319,119.467 458.569,120.667 464.569,120.667C470.769,120.667 476.869,119.517 482.869,117.217L482.869,134.617C479.469,135.917 475.869,136.917 472.069,137.617C468.269,138.317 464.569,138.667 460.969,138.667Z" style="fill:#4a90e2;fill-rule:nonzero;"/>
    <path d="M545.419,138.667C533.019,138.667 523.619,135.217 517.219,128.317C510.819,121.417 507.619,111.517 507.619,98.617C507.619,84.317 511.044,73.167 517.894,65.167C524.744,57.167 534.619,53.167 547.519,53.167C559.319,53.167 568.119,56.617 573.919,63.517C579.719,70.417 582.619,80.417 582.619,93.517C582.619,97.217 582.469,100.417 582.169,103.117L520.819,103.117L520.819,88.867L568.819,88.867L562.519,95.617C562.419,89.317 561.894,84.417 560.944,80.917C559.994,77.417 558.344,74.842 555.994,73.192C553.644,71.542 550.369,70.717 546.169,70.717C539.669,70.717 534.994,72.642 532.144,76.492C529.294,80.342 527.869,86.817 527.869,95.917C527.869,105.117 529.444,111.617 532.594,115.417C535.744,119.217 540.969,121.117 548.269,121.117C552.669,121.117 557.444,120.542 562.594,119.392C567.744,118.242 572.419,116.717 576.619,114.817L576.619,131.917C572.219,134.117 567.219,135.792 561.619,136.942C556.019,138.092 550.619,138.667 545.419,138.667Z" style="fill:#4a90e2;fill-rule:nonzero;"/>
    <rect x="608.569" y="80.467" width="64.8" height="17.1" style="fill:#4a90e2;fill-rule:nonzero;"/>
    <path d="M744.319,53.167C753.919,53.167 761.394,56.842 766.744,64.192C772.094,71.542 774.769,81.867 774.769,95.167C774.769,108.867 772.094,119.542 766.744,127.192C761.394,134.842 753.919,138.667 744.319,138.667C738.119,138.667 732.819,137.067 728.419,133.867C724.019,130.667 720.669,126.067 718.369,120.067L721.069,117.067L721.069,165.667L701.569,165.667L701.569,54.667L717.469,54.667L721.519,77.467L717.319,75.217C719.619,68.017 723.044,62.542 727.594,58.792C732.144,55.042 737.719,53.167 744.319,53.167ZM738.019,70.867C731.919,70.867 727.569,72.717 724.969,76.417C722.369,80.117 721.069,86.367 721.069,95.167C721.069,104.467 722.369,111.092 724.969,115.042C727.569,118.992 731.919,120.967 738.019,120.967C744.019,120.967 748.269,119.117 750.769,115.417C753.269,111.717 754.519,105.467 754.519,96.667C754.519,87.367 753.269,80.742 750.769,76.792C748.269,72.842 744.019,70.867 738.019,70.867Z" style="fill:#4a90e2;fill-rule:nonzero;"/>
    <path d="M848.569,83.317C848.569,78.617 847.644,75.217 845.794,73.117C843.944,71.017 840.969,69.967 836.869,69.967C832.469,69.967 828.569,71.267 825.169,73.867C821.769,76.467 817.669,81.167 812.869,87.967L810.769,76.867C814.669,69.267 819.444,63.417 825.094,59.317C830.744,55.217 837.069,53.167 844.069,53.167C851.669,53.167 857.569,55.467 861.769,60.067C865.969,64.667 868.069,71.217 868.069,79.717L868.069,137.167L848.569,137.167L848.569,83.317ZM798.319,26.167L817.969,26.167L817.969,137.167L798.319,137.167L798.319,26.167Z" style="fill:#4a90e2;fill-rule:nonzero;"/>
    <path d="M936.319,53.167C945.919,53.167 953.394,56.842 958.744,64.192C964.094,71.542 966.769,81.867 966.769,95.167C966.769,108.867 964.094,119.542 958.744,127.192C953.394,134.842 945.919,138.667 936.319,138.667C930.119,138.667 924.819,137.067 920.419,133.867C916.019,130.667 912.669,126.067 910.369,120.067L913.069,117.067L913.069,165.667L893.569,165.667L893.569,54.667L909.469,54.667L913.519,77.467L909.319,75.217C911.619,68.017 915.044,62.542 919.594,58.792C924.144,55.042 929.719,53.167 936.319,53.167ZM930.019,70.867C923.919,70.867 919.569,72.717 916.969,76.417C914.369,80.117 913.069,86.367 913.069,95.167C913.069,104.467 914.369,111.092 916.969,115.042C919.569,118.992 923.919,120.967 930.019,120.967C936.019,120.967 940.269,119.117 942.769,115.417C945.269,111.717 946.519,105.467 946.519,96.667C946.519,87.367 945.269,80.742 942.769,76.792C940.269,72.842 936.019,70.867 930.019,70.867Z" style="fill:#4a90e2;fill-rule:nonzero;"/>
</svg>
